<?xml version="1.0" encoding="UTF-8"?>
<!DOCTYPE svg PUBLIC "-//W3C//DTD SVG 1.1//EN" "http://www.w3.org/Graphics/SVG/1.1/DTD/svg11.dtd">
<svg xmlns="http://www.w3.org/2000/svg" version="1.1" width="341px" height="355px" style="shape-rendering:geometricPrecision; text-rendering:geometricPrecision; image-rendering:optimizeQuality; fill-rule:evenodd; clip-rule:evenodd" xmlns:xlink="http://www.w3.org/1999/xlink">
<g><path style="opacity:0.01" fill="#fdfefd" d="M 22.5,-0.5 C 27.1667,-0.5 31.8333,-0.5 36.5,-0.5C 32.4492,16.7004 27.6159,33.7004 22,50.5C 19.9901,55.1957 17.4901,59.529 14.5,63.5C 13.914,63.2907 13.414,62.9574 13,62.5C 12.3333,59.1667 12.3333,55.8333 13,52.5C 16.9568,34.9676 20.1234,17.3009 22.5,-0.5 Z"/></g>
<g><path style="opacity:0.931" fill="#88bce4" d="M 282.5,-0.5 C 289.167,-0.5 295.833,-0.5 302.5,-0.5C 298.895,4.60251 294.229,8.43584 288.5,11C 283.169,15.9981 279.003,21.8314 276,28.5C 273.294,30.8706 270.961,33.5372 269,36.5C 259.135,53.2601 251.302,70.9268 245.5,89.5C 243.568,93.1953 242.235,97.1953 241.5,101.5C 240.928,103.255 240.094,104.922 239,106.5C 236.971,116.895 234.638,127.228 232,137.5C 225.313,179.624 217.979,221.624 210,263.5C 202.69,280.787 194.357,297.453 185,313.5C 181.306,316.029 178.14,319.029 175.5,322.5C 171.854,324.817 168.52,327.484 165.5,330.5C 150.072,340.206 133.405,347.206 115.5,351.5C 104.261,353.178 92.9278,353.844 81.5,353.5C 79.4727,353.662 77.4727,353.495 75.5,353C 74.2888,352.107 74.2888,351.274 75.5,350.5C 109.679,338.315 134.679,315.982 150.5,283.5C 152.708,282.977 154.208,281.644 155,279.5C 160.163,268.18 163.996,256.513 166.5,244.5C 166.427,242.41 166.094,240.41 165.5,238.5C 169.937,204.67 175.437,171.003 182,137.5C 184.708,126.33 187.874,115.33 191.5,104.5C 193.94,100.183 195.607,95.5166 196.5,90.5C 201.093,75.9807 207.76,62.6474 216.5,50.5C 219.855,49.1448 222.189,46.8114 223.5,43.5C 229.421,37.2083 235.755,31.375 242.5,26C 255.727,16.8948 269.06,8.06149 282.5,-0.5 Z"/></g>
<g><path style="opacity:0.007" fill="#fdfefd" d="M -0.5,47.5 C -0.5,37.8333 -0.5,28.1667 -0.5,18.5C 0.932147,14.7333 3.59881,12.4 7.5,11.5C 7.76052,19.613 6.92718,27.613 5,35.5C 3.93878,39.9495 2.10545,43.9495 -0.5,47.5 Z"/></g>
<g><path style="opacity:0.208" fill="#dff1fa" d="M 223.5,43.5 C 222.189,46.8114 219.855,49.1448 216.5,50.5C 216.369,49.7611 216.536,49.0944 217,48.5C 218.765,46.2956 220.931,44.6289 223.5,43.5 Z"/></g>
<g><path style="opacity:0.877" fill="#bad8f0" d="M 163.5,85.5 C 165.665,85.1159 167.332,85.7826 168.5,87.5C 155.328,111.853 147.494,137.853 145,165.5C 144.606,196.653 140.606,227.319 133,257.5C 126.967,275.25 117.633,290.916 105,304.5C 96.5465,312.649 86.7131,318.649 75.5,322.5C 74.0683,322.267 73.5683,321.6 74,320.5C 79.5,311.5 85,302.5 90.5,293.5C 97.3359,276.489 101.169,258.823 102,240.5C 102.333,215.167 102.667,189.833 103,164.5C 103.592,160.724 104.592,157.057 106,153.5C 112.254,142.66 118.254,131.66 124,120.5C 125.378,118.787 127.045,117.453 129,116.5C 137.533,102.797 149.033,92.4641 163.5,85.5 Z"/></g>
<g><path style="opacity:0.207" fill="#d7edf9" d="M 196.5,90.5 C 195.607,95.5166 193.94,100.183 191.5,104.5C 191.679,99.2115 193.346,94.5449 196.5,90.5 Z"/></g>
<g><path style="opacity:0.094" fill="#dff0f9" d="M 245.5,89.5 C 245.381,94.0039 244.048,98.0039 241.5,101.5C 242.235,97.1953 243.568,93.1953 245.5,89.5 Z"/></g>
<g><path style="opacity:0.007" fill="#080808" d="M 310.5,152.5 C 309.651,150.112 308.651,147.779 307.5,145.5C 309.459,140.248 311.959,135.248 315,130.5C 316.356,129.62 317.856,129.286 319.5,129.5C 321.19,139.105 318.19,146.772 310.5,152.5 Z"/></g>
<g><path style="opacity:0.004" fill="#dfdfdf" d="M 307.5,145.5 C 308.651,147.779 309.651,150.112 310.5,152.5C 309.739,153.391 308.739,154.058 307.5,154.5C 306.259,151.463 306.259,148.463 307.5,145.5 Z"/></g>
<g><path style="opacity:0.015" fill="#000000" d="M 316.5,229.5 C 318.39,229.297 319.89,229.963 321,231.5C 324.409,236.193 325.075,241.193 323,246.5C 318.675,250.752 315.342,250.085 313,244.5C 311.559,238.772 312.726,233.772 316.5,229.5 Z"/></g>
<g><path style="opacity:0.453" fill="#a1c4de" d="M 165.5,238.5 C 166.094,240.41 166.427,242.41 166.5,244.5C 163.996,256.513 160.163,268.18 155,279.5C 154.208,281.644 152.708,282.977 150.5,283.5C 156.527,268.751 161.527,253.751 165.5,238.5 Z"/></g>
<g><path style="opacity:0.154" fill="#e0f2fb" d="M 175.5,322.5 C 173.382,326.574 170.049,329.241 165.5,330.5C 168.52,327.484 171.854,324.817 175.5,322.5 Z"/></g>
<g><path style="opacity:0.757" fill="#d7ebf8" d="M 115.5,351.5 C 114.694,352.728 113.694,353.728 112.5,354.5C 102.167,354.5 91.8333,354.5 81.5,354.5C 81.5,354.167 81.5,353.833 81.5,353.5C 92.9278,353.844 104.261,353.178 115.5,351.5 Z"/></g>
</svg>
